<svg width="40" height="40" viewBox="0 0 40 40" fill="none" xmlns="http://www.w3.org/2000/svg">
<rect width="40" height="40" rx="3.05922" fill="#011826"/>
<rect width="32.5926" height="32.5926" transform="translate(3.70312 3.70312)" fill="#011826"/>
<path opacity="0.5" d="M28.6297 15.573C28.6435 15.766 28.6435 15.959 28.6435 16.152C28.6435 22.0391 24.1627 28.8224 15.9732 28.8224C13.4501 28.8224 11.1063 28.0916 9.13477 26.8233C9.49324 26.8646 9.83789 26.8784 10.2102 26.8784C12.292 26.8784 14.2084 26.1753 15.7388 24.9758C13.781 24.9344 12.1403 23.6522 11.5751 21.8875C11.8508 21.9288 12.1265 21.9564 12.4161 21.9564C12.8159 21.9564 13.2158 21.9012 13.588 21.8048C11.5475 21.3911 10.0171 19.5988 10.0171 17.4342V17.3791C10.6099 17.71 11.2993 17.9168 12.03 17.9444C10.8305 17.1447 10.0447 15.7798 10.0447 14.2356C10.0447 13.4084 10.2652 12.6501 10.6513 11.9883C12.8435 14.6906 16.1386 16.4553 19.8335 16.6484C19.7646 16.3175 19.7232 15.9728 19.7232 15.6281C19.7232 13.174 21.7086 11.1749 24.1764 11.1749C25.4586 11.1749 26.6167 11.7126 27.4302 12.5812C28.4366 12.3882 29.4017 12.0159 30.2565 11.5058C29.9256 12.5399 29.2225 13.4084 28.2988 13.9599C29.1949 13.8634 30.0635 13.6152 30.8632 13.2706C30.2566 14.1529 29.4983 14.9387 28.6297 15.573Z" fill="white"/>
</svg>
