<svg width="77" height="15" viewBox="0 0 77 15" fill="none" xmlns="http://www.w3.org/2000/svg">
<path d="M2.402 12.344H6.632V14H0.35V1.49H2.402V12.344ZM9.39205 2.768C9.02005 2.768 8.70805 2.642 8.45605 2.39C8.20405 2.138 8.07805 1.826 8.07805 1.454C8.07805 1.082 8.20405 0.769999 8.45605 0.518C8.70805 0.265999 9.02005 0.139999 9.39205 0.139999C9.75205 0.139999 10.058 0.265999 10.31 0.518C10.562 0.769999 10.688 1.082 10.688 1.454C10.688 1.826 10.562 2.138 10.31 2.39C10.058 2.642 9.75205 2.768 9.39205 2.768ZM10.4 4.082V14H8.34805V4.082H10.4ZM18.0981 3.92C18.8781 3.92 19.5741 4.082 20.1861 4.406C20.8101 4.73 21.2961 5.21 21.6441 5.846C21.9921 6.482 22.1661 7.25 22.1661 8.15V14H20.1321V8.456C20.1321 7.568 19.9101 6.89 19.4661 6.422C19.0221 5.942 18.4161 5.702 17.6481 5.702C16.8801 5.702 16.2681 5.942 15.8121 6.422C15.3681 6.89 15.1461 7.568 15.1461 8.456V14H13.0941V4.082H15.1461V5.216C15.4821 4.808 15.9081 4.49 16.4241 4.262C16.9521 4.034 17.5101 3.92 18.0981 3.92ZM28.7076 9.05L33.2796 14H30.5076L26.8356 9.734V14H24.7836V0.68H26.8356V8.42L30.4356 4.082H33.2796L28.7076 9.05ZM43.8404 8.798C43.8404 9.17 43.8164 9.506 43.7684 9.806H36.1904C36.2504 10.598 36.5444 11.234 37.0724 11.714C37.6004 12.194 38.2484 12.434 39.0164 12.434C40.1204 12.434 40.9004 11.972 41.3564 11.048H43.5704C43.2704 11.96 42.7244 12.71 41.9324 13.298C41.1524 13.874 40.1804 14.162 39.0164 14.162C38.0684 14.162 37.2164 13.952 36.4604 13.532C35.7164 13.1 35.1284 12.5 34.6964 11.732C34.2764 10.952 34.0664 10.052 34.0664 9.032C34.0664 8.012 34.2704 7.118 34.6784 6.35C35.0984 5.57 35.6804 4.97 36.4244 4.55C37.1804 4.13 38.0444 3.92 39.0164 3.92C39.9524 3.92 40.7864 4.124 41.5184 4.532C42.2504 4.94 42.8204 5.516 43.2284 6.26C43.6364 6.992 43.8404 7.838 43.8404 8.798ZM41.6984 8.15C41.6864 7.394 41.4164 6.788 40.8884 6.332C40.3604 5.876 39.7064 5.648 38.9264 5.648C38.2184 5.648 37.6124 5.876 37.1084 6.332C36.6044 6.776 36.3044 7.382 36.2084 8.15H41.6984ZM45.1758 8.996C45.1758 8 45.3798 7.118 45.7878 6.35C46.2078 5.582 46.7718 4.988 47.4798 4.568C48.1998 4.136 48.9978 3.92 49.8738 3.92C50.5218 3.92 51.1578 4.064 51.7818 4.352C52.4178 4.628 52.9218 5 53.2938 5.468V0.68H55.3638V14H53.2938V12.506C52.9578 12.986 52.4898 13.382 51.8898 13.694C51.3018 14.006 50.6238 14.162 49.8558 14.162C48.9918 14.162 48.1998 13.946 47.4798 13.514C46.7718 13.07 46.2078 12.458 45.7878 11.678C45.3798 10.886 45.1758 9.992 45.1758 8.996ZM53.2938 9.032C53.2938 8.348 53.1498 7.754 52.8618 7.25C52.5858 6.746 52.2198 6.362 51.7638 6.098C51.3078 5.834 50.8158 5.702 50.2878 5.702C49.7598 5.702 49.2678 5.834 48.8118 6.098C48.3558 6.35 47.9838 6.728 47.6958 7.232C47.4198 7.724 47.2818 8.312 47.2818 8.996C47.2818 9.68 47.4198 10.28 47.6958 10.796C47.9838 11.312 48.3558 11.708 48.8118 11.984C49.2798 12.248 49.7718 12.38 50.2878 12.38C50.8158 12.38 51.3078 12.248 51.7638 11.984C52.2198 11.72 52.5858 11.336 52.8618 10.832C53.1498 10.316 53.2938 9.716 53.2938 9.032Z" fill="#2A68B4"/>
<path d="M63.7788 2.768C63.4068 2.768 63.0948 2.642 62.8428 2.39C62.5908 2.138 62.4648 1.826 62.4648 1.454C62.4648 1.082 62.5908 0.769999 62.8428 0.518C63.0948 0.265999 63.4068 0.139999 63.7788 0.139999C64.1388 0.139999 64.4448 0.265999 64.6968 0.518C64.9488 0.769999 65.0748 1.082 65.0748 1.454C65.0748 1.826 64.9488 2.138 64.6968 2.39C64.4448 2.642 64.1388 2.768 63.7788 2.768ZM64.7868 4.082V14H62.7348V4.082H64.7868ZM72.4849 3.92C73.2649 3.92 73.9609 4.082 74.5729 4.406C75.1969 4.73 75.6829 5.21 76.0309 5.846C76.3789 6.482 76.5529 7.25 76.5529 8.15V14H74.5189V8.456C74.5189 7.568 74.2969 6.89 73.8529 6.422C73.4089 5.942 72.8029 5.702 72.0349 5.702C71.2669 5.702 70.6549 5.942 70.1989 6.422C69.7549 6.89 69.5329 7.568 69.5329 8.456V14H67.4809V4.082H69.5329V5.216C69.8689 4.808 70.2949 4.49 70.8109 4.262C71.3389 4.034 71.8969 3.92 72.4849 3.92Z" fill="white"/>
</svg>
