<svg width="40" height="40" viewBox="0 0 40 40" fill="none" xmlns="http://www.w3.org/2000/svg">
<rect width="40" height="40" rx="3.05922" fill="#011826"/>
<path opacity="0.5" d="M13.9985 30.8643H9.49367V16.3574H13.9985V30.8643ZM11.7436 14.3785C10.3032 14.3785 9.13477 13.1854 9.13477 11.7448C9.13477 10.304 10.3028 9.13593 11.7436 9.13593C13.1845 9.13593 14.3525 10.304 14.3525 11.7448C14.3525 13.1854 13.1836 14.3785 11.7436 14.3785ZM30.8585 30.8643H26.3634V23.8024C26.3634 22.1194 26.3294 19.9611 24.0213 19.9611C21.6791 19.9611 21.3202 21.7896 21.3202 23.6812V30.8643H16.8203V16.3574H21.1408V18.3363H21.2038C21.8052 17.1965 23.2743 15.9936 25.4661 15.9936C30.0252 15.9936 30.8633 18.9959 30.8633 22.8954V30.8643H30.8585Z" fill="white"/>
</svg>
