<svg width="136" height="136" viewBox="0 0 136 136" fill="none" xmlns="http://www.w3.org/2000/svg">
<path d="M68 54.5C75.1608 54.5 82.0284 51.6554 87.0919 46.5919C92.1554 41.5284 95 34.6608 95 27.5C95 20.3392 92.1554 13.4716 87.0919 8.40812C82.0284 3.34464 75.1608 0.5 68 0.5C60.8392 0.5 53.9716 3.34464 48.9081 8.40812C43.8446 13.4716 41 20.3392 41 27.5C41 34.6608 43.8446 41.5284 48.9081 46.5919C53.9716 51.6554 60.8392 54.5 68 54.5ZM24.125 74.75C28.6005 74.75 32.8927 72.9721 36.0574 69.8074C39.2221 66.6428 41 62.3505 41 57.875C41 53.3995 39.2221 49.1073 36.0574 45.9426C32.8927 42.7779 28.6005 41 24.125 41C19.6495 41 15.3573 42.7779 12.1926 45.9426C9.0279 49.1073 7.25 53.3995 7.25 57.875C7.25 62.3505 9.0279 66.6428 12.1926 69.8074C15.3573 72.9721 19.6495 74.75 24.125 74.75ZM128.75 57.875C128.75 62.3505 126.972 66.6428 123.807 69.8074C120.643 72.9721 116.351 74.75 111.875 74.75C107.399 74.75 103.107 72.9721 99.9426 69.8074C96.7779 66.6428 95 62.3505 95 57.875C95 53.3995 96.7779 49.1073 99.9426 45.9426C103.107 42.7779 107.399 41 111.875 41C116.351 41 120.643 42.7779 123.807 45.9426C126.972 49.1073 128.75 53.3995 128.75 57.875ZM68 61.25C76.9511 61.25 85.5355 64.8058 91.8649 71.1351C98.1942 77.4645 101.75 86.0489 101.75 95V135.5H34.25V95C34.25 86.0489 37.8058 77.4645 44.1351 71.1351C50.4645 64.8058 59.0489 61.25 68 61.25ZM20.75 95C20.75 90.3223 21.425 85.8065 22.694 81.5405L21.5465 81.635C15.7609 82.2702 10.4135 85.0188 6.52952 89.3537C2.64557 93.6886 0.49849 99.3047 0.500001 105.125V135.5H20.75V95ZM135.5 135.5V105.125C135.501 99.1065 133.204 93.3146 129.08 88.9316C124.955 84.5486 119.313 81.905 113.306 81.5405C114.568 85.8065 115.25 90.3223 115.25 95V135.5H135.5Z" fill="url(#paint0_linear_36_416)"/>
<defs>
<linearGradient id="paint0_linear_36_416" x1="-122.898" y1="22.0712" x2="92.1468" y2="-44.646" gradientUnits="userSpaceOnUse">
<stop stop-color="#CDAB65"/>
<stop offset="1" stop-color="#F5D5A2"/>
</linearGradient>
</defs>
</svg>
