<svg width="80" height="80" viewBox="0 0 80 80" fill="none" xmlns="http://www.w3.org/2000/svg">
<path d="M39.0561 69.3619H15.6907C13.8174 69.3619 12.3047 70.8747 12.3047 72.748V76.6693H42.4419V72.748C42.4419 70.8741 40.9297 69.3619 39.0563 69.3619H39.0561Z" fill="#C9A760"/>
<path d="M6.70868 15.4949C5.1493 15.4949 3.89258 16.7634 3.89258 18.311V32.5184C3.89258 34.0777 5.1611 35.3345 6.70868 35.3345C8.26807 35.3345 9.52479 34.066 9.52479 32.5184L9.52426 18.311C9.53604 16.7516 8.26751 15.4949 6.70868 15.4949Z" fill="#C9A760"/>
<path d="M50.7933 38.9201H54.3653V49.7068H56.4133V54.0469C56.4133 54.6752 56.9136 55.1756 57.542 55.1756C58.8453 55.1756 59.9157 56.2346 59.9157 57.5493C59.9157 58.8526 58.8566 59.923 57.542 59.923C56.5295 59.923 55.6221 59.2828 55.2964 58.317C55.0987 57.7234 54.4586 57.4095 53.8649 57.6072C53.2713 57.8048 52.9575 58.445 53.1552 59.0386C53.7953 60.9119 55.5523 62.1804 57.5419 62.1804C60.0902 62.1804 62.173 60.1094 62.173 57.5493C62.173 55.3851 60.6838 53.5696 58.6707 53.0581V49.7067H61.0444V38.9201H64.6164V33.8932H50.793L50.7933 38.9201Z" fill="#C9A760"/>
<path d="M24.6992 31.6403H49.425L36.5561 20.7031L24.6992 31.6403Z" fill="#C9A760"/>
<path d="M51.2025 30.1889L65.7939 19.1927H38.2637L51.2025 30.1889Z" fill="#C9A760"/>
<path d="M11.7932 21.1362L22.987 30.1422L34.8553 19.1927H11.793L11.7932 21.1362Z" fill="#C9A760"/>
<path d="M11.793 24.043V31.6412H21.2296L11.793 24.043Z" fill="#C9A760"/>
<path d="M76.1049 31.6372L69.3911 19.3033L53.043 31.6372H76.1049Z" fill="#C9A760"/>
<path d="M18.4492 33.8932H36.299V67.1023H18.4492V33.8932Z" fill="#C9A760"/>
<path d="M25.698 7.30539L20.0315 16.9398H34.7271L28.2693 5.96721L59.5119 16.9398H66.3189L27.7464 3.39589C27.3741 3.26786 26.9552 3.3375 26.6526 3.59356L11.3398 16.2417C11.6307 16.8819 11.7936 17.5799 11.7936 18.3127V18.79L25.698 7.30539Z" fill="#C9A760"/>
</svg>
