<svg width="80" height="80" viewBox="0 0 80 80" fill="none" xmlns="http://www.w3.org/2000/svg">
<path d="M75.3574 48.5135C75.3627 48.2153 75.2656 47.9242 75.0827 47.6886L45.239 11.3751V6.60815H34.7628V11.3751L4.94458 47.6886C4.75224 47.9207 4.64584 48.2118 4.64351 48.5135H3.33398V56.3706H34.7626V68.1563H30.834V73.3944H49.1673V68.1563H45.2387V56.3706H76.6673V48.5135H75.3574ZM72.3719 48.5135H64.803L45.2379 27.0507V15.5012L72.3719 48.5135ZM52.4282 48.5135L45.6187 39.8443C45.5129 39.7162 45.3842 39.6098 45.2387 39.5303V30.9396L61.2538 48.5141L52.4282 48.5135ZM18.7472 48.5135L34.7623 30.9389V39.5297C34.6168 39.6092 34.4882 39.7156 34.3823 39.8436L27.5728 48.5128L18.7472 48.5135ZM34.7623 43.6028V48.5135H30.912L34.7623 43.6028ZM45.2385 43.6028L49.0888 48.5135H45.2385V43.6028ZM34.7623 15.5012V27.0513L15.1973 48.5141H7.64188L34.7623 15.5012Z" fill="#C9A760"/>
</svg>
