<svg width="80" height="80" viewBox="0 0 80 80" fill="none" xmlns="http://www.w3.org/2000/svg">
<path d="M20.2152 76.6663H32.4375V66.3078C32.4375 62.3205 35.3558 58.7455 39.3279 58.3631C43.8804 57.9354 47.715 61.5104 47.715 65.9714V76.6656H59.9374V21.6659H20.2148L20.2152 76.6663ZM49.2422 24.7226H53.8256C54.6657 24.7226 55.3531 25.41 55.3531 26.2502C55.3531 27.0904 54.6657 27.7777 53.8256 27.7777H49.2422C48.4021 27.7777 47.7147 27.0904 47.7147 26.2502C47.7147 25.41 48.4021 24.7226 49.2422 24.7226ZM49.2422 30.8335H53.8256C54.6657 30.8335 55.3531 31.5209 55.3531 32.361C55.3531 33.2012 54.6657 33.8886 53.8256 33.8886H49.2422C48.4021 33.8886 47.7147 33.2012 47.7147 32.361C47.7147 31.5209 48.4021 30.8335 49.2422 30.8335ZM49.2422 36.9444H53.8256C54.6657 36.9444 55.3531 37.6317 55.3531 38.4719C55.3531 39.3121 54.6657 39.9995 53.8256 39.9995H49.2422C48.4021 39.9995 47.7147 39.3121 47.7147 38.4719C47.7147 37.6324 48.4021 36.9444 49.2422 36.9444ZM49.2422 43.0559H53.8256C54.6657 43.0559 55.3531 43.7432 55.3531 44.5834C55.3531 45.4236 54.6657 46.111 53.8256 46.111H49.2422C48.4021 46.111 47.7147 45.4236 47.7147 44.5834C47.7147 43.7432 48.4021 43.0559 49.2422 43.0559ZM49.2422 49.1667H53.8256C54.6657 49.1667 55.3531 49.8541 55.3531 50.6943C55.3531 51.5345 54.6657 52.2218 53.8256 52.2218H49.2422C48.4021 52.2218 47.7147 51.5345 47.7147 50.6943C47.7147 49.8541 48.4021 49.1667 49.2422 49.1667ZM37.784 24.723H42.3673C43.2075 24.723 43.8948 25.4103 43.8948 26.2505C43.8948 27.0907 43.2075 27.7781 42.3673 27.7781H37.784C36.9438 27.7781 36.2564 27.0907 36.2564 26.2505C36.2564 25.4103 36.9438 24.723 37.784 24.723ZM37.784 30.8338H42.3673C43.2075 30.8338 43.8948 31.5212 43.8948 32.3614C43.8948 33.2016 43.2075 33.8889 42.3673 33.8889H37.784C36.9438 33.8889 36.2564 33.2016 36.2564 32.3614C36.2564 31.5212 36.9438 30.8338 37.784 30.8338ZM37.784 36.9447H42.3673C43.2075 36.9447 43.8948 37.632 43.8948 38.4722C43.8948 39.3124 43.2075 39.9998 42.3673 39.9998H37.784C36.9438 39.9998 36.2564 39.3124 36.2564 38.4722C36.2564 37.6327 36.9438 36.9447 37.784 36.9447ZM37.784 43.0562H42.3673C43.2075 43.0562 43.8948 43.7436 43.8948 44.5837C43.8948 45.4239 43.2075 46.1113 42.3673 46.1113H37.784C36.9438 46.1113 36.2564 45.4239 36.2564 44.5837C36.2564 43.7436 36.9438 43.0562 37.784 43.0562ZM37.784 49.1671H42.3673C43.2075 49.1671 43.8948 49.8544 43.8948 50.6946C43.8948 51.5348 43.2075 52.2222 42.3673 52.2222H37.784C36.9438 52.2222 36.2564 51.5348 36.2564 50.6946C36.2564 49.8544 36.9438 49.1671 37.784 49.1671ZM26.3257 24.7233H30.909C31.7492 24.7233 32.4366 25.4107 32.4366 26.2508C32.4366 27.091 31.7492 27.7784 30.909 27.7784H26.3257C25.4855 27.7784 24.7982 27.091 24.7982 26.2508C24.7982 25.4107 25.4855 24.7233 26.3257 24.7233ZM26.3257 30.8341H30.909C31.7492 30.8341 32.4366 31.5215 32.4366 32.3617C32.4366 33.2019 31.7492 33.8892 30.909 33.8892H26.3257C25.4855 33.8892 24.7982 33.2019 24.7982 32.3617C24.7982 31.5215 25.4855 30.8341 26.3257 30.8341ZM26.3257 36.945H30.909C31.7492 36.945 32.4366 37.6324 32.4366 38.4726C32.4366 39.3127 31.7492 40.0001 30.909 40.0001H26.3257C25.4855 40.0001 24.7982 39.3127 24.7982 38.4726C24.7982 37.633 25.4855 36.945 26.3257 36.945ZM26.3257 43.0565H30.909C31.7492 43.0565 32.4366 43.7439 32.4366 44.5841C32.4366 45.4243 31.7492 46.1116 30.909 46.1116H26.3257C25.4855 46.1116 24.7982 45.4243 24.7982 44.5841C24.7982 43.7439 25.4855 43.0565 26.3257 43.0565ZM26.3257 49.1674H30.909C31.7492 49.1674 32.4366 49.8547 32.4366 50.6949C32.4366 51.5351 31.7492 52.2225 30.909 52.2225H26.3257C25.4855 52.2225 24.7982 51.5351 24.7982 50.6949C24.7982 49.8547 25.4855 49.1674 26.3257 49.1674Z" fill="#C9A760"/>
<path d="M29.383 3.33331C28.5428 3.33331 27.8555 4.02068 27.8555 4.86086V7.91662H52.2992V4.86086C52.2992 4.02068 51.6119 3.33331 50.7717 3.33331H29.383Z" fill="#C9A760"/>
<path d="M60.6269 10.97H19.3772C18.537 10.97 17.8496 11.6574 17.8496 12.4976V17.0809C17.8496 17.9211 18.537 18.6084 19.3772 18.6084H60.6269C61.4671 18.6084 62.1545 17.9211 62.1545 17.0809V12.4976C62.1545 11.6574 61.4671 10.97 60.6269 10.97Z" fill="#C9A760"/>
<path d="M75.7037 37.0491L62.9928 31.9466L62.9922 76.6633H75.1384C75.9786 76.6633 76.666 75.9759 76.666 75.1358V38.4693C76.666 37.8427 76.2843 37.2774 75.7037 37.0485L75.7037 37.0491ZM72.8921 69.0242H66.7813C65.9411 69.0242 65.2537 68.3369 65.2537 67.4967C65.2537 66.6565 65.9411 65.9691 66.7813 65.9691H72.8921C73.7323 65.9691 74.4197 66.6565 74.4197 67.4967C74.4203 68.3369 73.7323 69.0242 72.8921 69.0242ZM72.8921 61.3858H66.7813C65.9411 61.3858 65.2537 60.6985 65.2537 59.8583C65.2537 59.0181 65.9411 58.3307 66.7813 58.3307H72.8921C73.7323 58.3307 74.4197 59.0181 74.4197 59.8583C74.4203 60.6978 73.7323 61.3858 72.8921 61.3858ZM72.8921 53.7468H66.7813C65.9411 53.7468 65.2537 53.0594 65.2537 52.2192C65.2537 51.379 65.9411 50.6917 66.7813 50.6917H72.8921C73.7323 50.6917 74.4197 51.379 74.4197 52.2192C74.4203 53.0594 73.7323 53.7468 72.8921 53.7468ZM72.8921 46.1077H66.7813C65.9411 46.1077 65.2537 45.4203 65.2537 44.5802C65.2537 43.74 65.9411 43.0526 66.7813 43.0526H72.8921C73.7323 43.0526 74.4197 43.74 74.4197 44.5802C74.4203 45.4203 73.7323 46.1077 72.8921 46.1077Z" fill="#C9A760"/>
<path d="M3.33398 38.4726V75.1391C3.33398 75.9793 4.02135 76.6666 4.86154 76.6666H17.16V31.8877L4.29632 37.0516C3.71572 37.2805 3.334 37.8458 3.334 38.4724L3.33398 38.4726ZM7.19919 43.0559H13.31C14.1502 43.0559 14.8376 43.7433 14.8376 44.5835C14.8376 45.4236 14.1502 46.111 13.31 46.111H7.19919C6.359 46.111 5.67164 45.4236 5.67164 44.5835C5.67164 43.7433 6.359 43.0559 7.19919 43.0559ZM7.19919 50.6943H13.31C14.1502 50.6943 14.8376 51.3817 14.8376 52.2219C14.8376 53.0621 14.1502 53.7494 13.31 53.7494H7.19919C6.359 53.7494 5.67164 53.0621 5.67164 52.2219C5.67164 51.3823 6.359 50.6943 7.19919 50.6943ZM7.19919 58.3334H13.31C14.1502 58.3334 14.8376 59.0208 14.8376 59.8609C14.8376 60.7011 14.1502 61.3885 13.31 61.3885H7.19919C6.359 61.3885 5.67164 60.7011 5.67164 59.8609C5.67164 59.0208 6.359 58.3334 7.19919 58.3334ZM7.19919 65.9725H13.31C14.1502 65.9725 14.8376 66.6598 14.8376 67.5C14.8376 68.3402 14.1502 69.0276 13.31 69.0276H7.19919C6.359 69.0276 5.67164 68.3402 5.67164 67.5C5.67164 66.6598 6.359 65.9725 7.19919 65.9725Z" fill="#C9A760"/>
</svg>
