<svg width="80" height="80" viewBox="0 0 80 80" fill="none" xmlns="http://www.w3.org/2000/svg">
<path d="M68.7325 29C65.2658 13.5667 51.7992 6.66669 39.9992 6.66669C39.9992 6.66669 39.9992 6.66669 39.9658 6.66669C28.1992 6.66669 14.7658 13.5667 11.2658 28.9667C7.3325 46.1667 17.8658 60.7334 27.3992 69.9334C30.9325 73.3334 35.4658 75.0334 39.9992 75.0334C44.5325 75.0334 49.0658 73.3334 52.5658 69.9334C62.0992 60.7334 72.6325 46.2 68.7325 29ZM50.9325 31.7667L37.5992 45.1C37.0992 45.6 36.4658 45.8334 35.8325 45.8334C35.1992 45.8334 34.5658 45.6 34.0658 45.1L29.0658 40.1C28.0992 39.1334 28.0992 37.5334 29.0658 36.5667C30.0325 35.6 31.6325 35.6 32.5992 36.5667L35.8325 39.8L47.3992 28.2334C48.3658 27.2667 49.9658 27.2667 50.9325 28.2334C51.8992 29.2 51.8992 30.8 50.9325 31.7667Z" fill="#C9A760"/>
</svg>
