<svg width="80" height="80" viewBox="0 0 80 80" fill="none" xmlns="http://www.w3.org/2000/svg">
<path d="M40.0045 44.2987C33.0755 44.2987 27.3488 36.7869 26.4286 27.0377H24.5449C25.5934 38.1417 32.112 46.6978 40.0031 46.6978C47.8956 46.6978 54.4143 38.1414 55.4627 27.0377H53.5763C52.6574 36.7869 46.9336 44.2987 40.0045 44.2987Z" fill="#C9A760"/>
<path d="M53.5923 44.6589C53.5573 44.6549 53.5208 44.6508 53.4817 44.6455C53.1956 44.6063 52.9028 44.5739 52.6087 44.5443C52.6087 44.5753 52.6006 44.6036 52.5992 44.6333C52.5952 44.721 52.5803 44.8033 52.5695 44.8924C52.5156 45.3781 52.3685 45.8504 52.1418 46.3024C50.617 50.1426 45.6784 57.4237 42.7719 61.5568L42.1728 52.9721C43.0215 52.5349 43.7515 51.813 44.2211 50.9791C44.5571 50.3759 44.7622 49.7215 44.7622 49.0522C44.7622 49.0522 42.5938 50.013 40.3783 50.013C40.2528 50.013 40.1273 50.0089 39.9991 50.0008C39.8736 50.0089 39.7481 50.013 39.6199 50.013C37.4056 50.013 35.236 49.0522 35.236 49.0522C35.236 49.7215 35.4411 50.3773 35.7798 50.9791C36.248 51.8144 36.9766 52.5363 37.8267 52.9721L37.2276 61.5568C34.3197 57.4223 29.3838 50.144 27.8577 46.3024C27.631 45.8504 27.4866 45.3754 27.4326 44.8924C27.4232 44.8033 27.407 44.7197 27.403 44.6333C27.403 44.6036 27.3935 44.5753 27.3935 44.5443C27.102 44.5739 26.8092 44.6063 26.5205 44.6455C26.4841 44.6508 26.4476 44.6549 26.4125 44.6589C16.3113 46.065 8.53906 54.736 8.53906 65.2258C8.53906 76.6953 17.8375 76.6683 29.3069 76.6683H50.6942C62.165 76.6683 71.4621 76.6953 71.4621 65.2258C71.4675 54.736 63.6925 46.0649 53.5927 44.6589H53.5923Z" fill="#C9A760"/>
<path d="M23.8081 24.7258H56.1982C57.4571 24.7258 58.4813 23.703 58.4813 22.4413C58.4813 21.1797 57.4598 20.1568 56.1982 20.1568H55.5734C55.5734 14.0862 52.1015 8.83453 47.0346 6.26519L46.5704 8.89643L45.7446 13.5802C45.6421 14.1604 45.1388 14.5693 44.5707 14.5693C44.5005 14.5693 44.4331 14.5639 44.3643 14.5504C43.7125 14.4357 43.2794 13.8177 43.3954 13.1673L44.3062 8.00477L44.8689 4.8095C44.3157 3.92297 43.3347 3.33601 42.2174 3.33601L37.7927 3.33331C36.6714 3.33331 35.6918 3.92162 35.1386 4.8068L35.7039 8.00072L36.6134 13.1632C36.7294 13.8109 36.2963 14.4316 35.6459 14.5463C35.5757 14.5585 35.5069 14.5652 35.4367 14.5652C34.8687 14.5652 34.3653 14.1577 34.2642 13.5761L33.4357 8.89239L32.9715 6.26114C27.9046 8.83166 24.4313 14.0835 24.4313 20.1542H23.8079C22.5463 20.1542 21.5234 21.177 21.5234 22.4386C21.5234 23.7016 22.5451 24.7258 23.8081 24.7258Z" fill="#C9A760"/>
</svg>
