<svg width="80" height="80" viewBox="0 0 80 80" fill="none" xmlns="http://www.w3.org/2000/svg">
<path d="M30.509 32.5779H9.1742L4.30664 67.2166H35.376L30.509 32.5779Z" fill="#C9A760"/>
<path d="M49.4922 61.2955H64.6618V73.8694H49.4922V61.2955Z" fill="#C9A760"/>
<path d="M3.98303 69.6484L3.33398 73.8669H36.3503L35.7012 69.6484H3.98303Z" fill="#C9A760"/>
<path d="M34.2422 41.9863L38.7848 73.8669H47.0593V60.0759C47.0593 59.4268 47.6274 58.8593 48.2759 58.8593H65.8792C66.5282 58.8593 67.0958 59.4274 67.0958 60.0759V73.8663H76.6678L76.6683 41.9857L34.2422 41.9863ZM48.6817 49.2061H39.5149V46.7723H48.6817V49.2061ZM60.7689 49.2061H51.6021V46.7723H60.7689V49.2061ZM72.8557 49.2061H63.6889V46.7723H72.8557V49.2061Z" fill="#C9A760"/>
<path d="M29.4559 25.3582H10.149L9.5 30.1447H30.1048L29.4559 25.3582Z" fill="#C9A760"/>
<path d="M19.3143 17.4895V21.5455H16.8805V17.4895C16.8805 16.5971 16.3939 15.8672 15.5825 15.5424C13.7978 14.8934 12.6621 13.271 12.6621 11.324V6.13281H15.0959V11.3246C15.0959 12.2169 15.5825 12.9468 16.394 13.2716C18.1786 13.9207 19.3143 15.6238 19.3143 17.4895Z" fill="#C9A760"/>
<path d="M25.8846 17.4895V21.5455H23.4508V17.4895C23.4508 16.5971 22.9642 15.8672 22.1528 15.5424C20.3681 14.8934 19.2324 13.271 19.2324 11.324V6.13281H21.6662V11.3246C21.6662 12.2169 22.1528 12.9468 22.9643 13.2716C24.7489 13.9207 25.8846 15.6238 25.8846 17.4895Z" fill="#C9A760"/>
</svg>
