<svg width="72" height="74" viewBox="0 0 72 74" fill="none" xmlns="http://www.w3.org/2000/svg">
<path d="M68.7379 63.5833H47.4286C46.1342 63.5833 45.0684 64.6371 45.0684 65.9435V70.9731C45.0684 72.2674 46.1222 73.3333 47.4286 73.3333H68.7487C70.0431 73.3333 71.1089 72.2795 71.1089 70.9731V65.9435C71.0973 64.637 70.0435 63.5833 68.7371 63.5833H68.7379Z" fill="#C9A760"/>
<path d="M23.6581 0H2.34873C1.0428 0 0 1.05382 0 2.36021V7.38982C0 8.68414 1.04274 9.75003 2.34873 9.75003H23.6689C24.9632 9.75003 26.0291 8.69622 26.0291 7.38982V2.36021C26.0175 1.05375 24.9637 0 23.6573 0H23.6581Z" fill="#C9A760"/>
<path d="M42.0118 35.9278C42.0118 38.0729 40.2728 39.8113 38.1277 39.8113C35.9831 39.8113 34.2441 38.0729 34.2441 35.9278C34.2441 33.7827 35.9831 32.0437 38.1277 32.0437C40.2728 32.0437 42.0118 33.7827 42.0118 35.9278Z" fill="#C9A760"/>
<path d="M49.0811 43.5579V28.2976C49.0811 26.5792 47.695 25.1932 45.9767 25.1932L30.2802 25.1926C28.5618 25.1926 27.1758 26.5788 27.1758 28.2971V43.5453C27.1758 45.2637 28.5619 46.6497 30.2802 46.6497L45.9753 46.6502C47.6938 46.6618 49.0803 45.2641 49.0803 43.5569L49.0811 43.5579ZM38.1285 42.0342C34.7603 42.0342 32.0223 39.2963 32.0223 35.928C32.0223 32.5599 34.7602 29.8219 38.1285 29.8219C41.4966 29.8219 44.2346 32.5598 44.2346 35.928C44.2351 39.2962 41.4968 42.0342 38.1285 42.0342Z" fill="#C9A760"/>
<path d="M25.0201 27.5993H23.1298V11.9609H4.31836V35.5157C4.31836 40.018 7.96129 43.6614 12.464 43.6614L24.9632 43.673C24.9632 43.6272 24.9515 43.5929 24.9515 43.547V28.2988C24.9399 28.0578 24.9858 27.8289 25.0201 27.5999L25.0201 27.5993Z" fill="#C9A760"/>
<path d="M48.4844 48.2203V61.3497H67.2958V35.7776C67.2958 31.2754 63.6529 27.632 59.1502 27.632L51.2339 27.6204C51.2682 27.8493 51.3024 28.0671 51.3024 28.3076V43.5558C51.303 45.5842 50.1574 47.3254 48.4844 48.2194L48.4844 48.2203Z" fill="#C9A760"/>
</svg>
